PathFileType	4	(X/Y/Z)	./resultDataOpenSim/trcMotMarkerGrf/sub09/qtm-04-03.trc
DataRate	CameraRate	NumFrames	NumMarkers	Units	OrigDataRate	OrigDataStartFrame	OrigNumFrames
250.000000	250.000000	6	24	m	250.000000	430	491
Frame#	Time	L.Toe.Tip			R.Toe.Tip			L.Ankle.Lat			R.Ankle.Lat			L.Ankle.Med			R.Ankle.Med			L.Heel			R.Heel			L.Knee.Lat			R.Knee.Lat			L.Knee.Med			R.Knee.Med			L.Thigh.Upper			R.Thigh.Upper			L.ASIS			R.ASIS			V.Sacral			L.Acromium			R.Acromium			C7			L.Elbow			R.Elbow			L.Wrist.Lat			R.Wrist.Lat
		X1	Y1	Z1	X2	Y2	Z2	X3	Y3	Z3	X4	Y4	Z4	X5	Y5	Z5	X6	Y6	Z6	X7	Y7	Z7	X8	Y8	Z8	X9	Y9	Z9	X10	Y10	Z10	X11	Y11	Z11	X12	Y12	Z12	X13	Y13	Z13	X14	Y14	Z14	X15	Y15	Z15	X16	Y16	Z16	X17	Y17	Z17	X18	Y18	Z18	X19	Y19	Z19	X20	Y20	Z20	X21	Y21	Z21	X22	Y22	Z22	X23	Y23	Z23	X24	Y24	Z24

430	1.716	1.8201429	0.11754772	0.008148177	1.1244823	0.04137372	0.12764426	1.6702049	0.083483914	-0.018307166	0.99478168	0.10253747	0.16225691	1.6926444	0.11056727	0.073766883	1.0204026	0.13702819	0.073388663	1.624441	0.021434232	0.033995457	0.92293037	0.10821447	0.10870886	1.5424026	0.48449109	-0.053450991	1.2433673	0.49213917	0.23445656	1.5597678	0.49679697	0.072469536	1.2348384	0.48392183	0.10697442	1.3780346	0.8648473	-0.087575272	1.3057036	0.8883727	0.27731314	1.4435073	0.95758339	-0.021796989	1.4241445	0.96815357	0.21928316	1.2650669	1.0098506	0.075284109	1.399404	1.4116161	-0.090206062	1.3967736	1.4341591	0.24253059	1.3230827	1.4678584	0.07539731	1.238624	1.0823323	-0.1363535	1.2733042	1.0827295	0.33356042	1.3146935	0.84046571	-0.19932982	1.4802815	0.89316559	0.31294093
431	1.72	1.8237	0.11228601	0.0097444764	1.1247799	0.041545585	0.12770194	1.6731966	0.081321034	-0.017190068	0.99597326	0.10439067	0.16293357	1.6956252	0.10798207	0.075013999	1.0221967	0.13855238	0.073939906	1.6258082	0.020732014	0.034672572	0.92438744	0.11105849	0.1091968	1.5496561	0.48357625	-0.053198614	1.2490155	0.49088551	0.23472216	1.5656398	0.4960651	0.072764856	1.2414097	0.48243077	0.10735062	1.3842915	0.8640439	-0.088355807	1.3117457	0.8871383	0.27662704	1.4501067	0.956536	-0.022217137	1.4298527	0.96700005	0.21905759	1.271421	1.0085037	0.074443849	1.4049418	1.41052	-0.09044272	1.4018274	1.4328573	0.24233184	1.3283312	1.4665576	0.075099628	1.244122	1.0812471	-0.1368976	1.278506	1.0813993	0.33295686	1.3202857	0.83936181	-0.19953887	1.485175	0.89146257	0.31331604
432	1.724	1.8274375	0.10605723	0.011648395	1.1251102	0.041725073	0.12782625	1.6761803	0.07950896	-0.01618308	0.99722902	0.10639538	0.16359867	1.6985464	0.10566824	0.076221467	1.0241586	0.14015483	0.074508448	1.6268844	0.020669311	0.035160539	0.92599659	0.11404223	0.10963252	1.5567925	0.48258145	-0.053066088	1.2550345	0.48960266	0.23507675	1.5715132	0.49535437	0.07305187	1.2479264	0.48094836	0.1076702	1.3904202	0.86329662	-0.089211724	1.3174547	0.88590586	0.27610133	1.4566334	0.9555872	-0.022643892	1.4359468	0.96579857	0.21877324	1.2777318	1.0072071	0.073685067	1.4104847	1.4094382	-0.090696031	1.406892	1.4315547	0.24213379	1.3335528	1.4652781	0.074789485	1.2496562	1.080158	-0.13742585	1.2837182	1.0800961	0.33236562	1.325963	0.83826612	-0.19973205	1.4900044	0.88974672	0.31370953
433	1.728	1.8315095	0.099044749	0.013822817	1.1254651	0.041907959	0.12799767	1.6792478	0.078197137	-0.015357588	0.99910352	0.10853555	0.16438314	1.7016158	0.10378067	0.077267183	1.0262906	0.14182752	0.075107553	1.6278858	0.021358496	0.035503415	0.92776013	0.11716828	0.11005245	1.5638324	0.48161485	-0.053111547	1.2618123	0.48829753	0.23560482	1.5773872	0.49466552	0.073329563	1.2544118	0.4793982	0.10792162	1.3964829	0.86257151	-0.090113595	1.3233864	0.88466509	0.27546406	1.4630452	0.9547626	-0.023051301	1.4422419	0.96457803	0.2184427	1.2839827	1.0059972	0.07301018	1.416031	1.4083797	-0.090970544	1.4119424	1.4302684	0.24194216	1.3387682	1.464057	0.074478888	1.2552352	1.0790677	-0.13792775	1.288936	1.0788061	0.3317791	1.3317262	0.83717566	-0.19990654	1.4947719	0.8880129	0.31411959
434	1.732	1.835783	0.091897199	0.01611601	1.125834	0.042080413	0.12823033	1.6823912	0.077361828	-0.014787405	1.0014668	0.11074622	0.16527445	1.7048227	0.1022589	0.078066258	1.0285767	0.14356815	0.075750153	1.62896	0.02264034	0.035625099	0.92968296	0.12044533	0.11051561	1.5708606	0.48083512	-0.053355454	1.2692866	0.48697946	0.23626103	1.5832613	0.49399928	0.073596918	1.2611907	0.47777016	0.1082894	1.4025809	0.86184122	-0.091034957	1.3297664	0.88337817	0.27465366	1.4693248	0.95408729	-0.023443856	1.4486065	0.96335674	0.21807384	1.2901646	1.004906	0.072431586	1.4215728	1.4073592	-0.091267445	1.4169762	1.4290121	0.24176002	1.3440072	1.4629286	0.07417347	1.2608725	1.0779772	-0.13839552	1.2941506	1.0775145	0.33117779	1.3375736	0.83609039	-0.20006266	1.4994827	0.88625543	0.3145438
435	1.736	1.8398831	0.085390244	0.018337108	1.1262141	0.042228254	0.1285601	1.6855458	0.076836056	-0.014494228	1.0035008	0.11290751	0.16602423	1.7079552	0.10095321	0.078614497	1.0309961	0.14538433	0.076449734	1.6301649	0.024165864	0.035412644	0.93178219	0.12389015	0.11107014	1.5779676	0.48042083	-0.05376755	1.2768792	0.48564889	0.23686776	1.5891349	0.49335636	0.073852913	1.2686163	0.47613993	0.10899749	1.4088174	0.86110877	-0.091952077	1.3365056	0.88200572	0.27377273	1.4754902	0.9535646	-0.023847027	1.4549643	0.96214704	0.21767477	1.296273	1.0039514	0.071958327	1.4271	1.4063917	-0.091586525	1.4220125	1.427793	0.24159218	1.3493	1.461922	0.073869452	1.2665708	1.0768923	-0.13883487	1.2993744	1.0762226	0.33053152	1.3435028	0.83501473	-0.20020275	1.5041421	0.88447987	0.31498014
